<?xml version="1.0" encoding="UTF-8" standalone="no"?>
<svg
   xmlns:slic3r="http://slic3r.org/namespaces/slic3r"
   xmlns:dc="http://purl.org/dc/elements/1.1/"
   xmlns:cc="http://creativecommons.org/ns#"
   xmlns:rdf="http://www.w3.org/1999/02/22-rdf-syntax-ns#"
   xmlns:svg="http://www.w3.org/2000/svg"
   xmlns="http://www.w3.org/2000/svg"
   xmlns:sodipodi="http://sodipodi.sourceforge.net/DTD/sodipodi-0.dtd"
   xmlns:inkscape="http://www.inkscape.org/namespaces/inkscape"
   inkscape:version="1.0 (4035a4fb49, 2020-05-01)"
   sodipodi:docname="adaptor_scaled.svg"
   id="svg57"
   version="1.1"
   height="87.242996mm"
   width="66.777mm">
  <metadata
     id="metadata63">
    <rdf:RDF>
      <cc:Work
         rdf:about="">
        <dc:format>image/svg+xml</dc:format>
        <dc:type
           rdf:resource="http://purl.org/dc/dcmitype/StillImage" />
        <dc:title></dc:title>
      </cc:Work>
    </rdf:RDF>
  </metadata>
  <defs
     id="defs61" />
  <sodipodi:namedview
     units="mm"
     inkscape:document-rotation="0"
     inkscape:current-layer="svg57"
     inkscape:window-maximized="1"
     inkscape:window-y="20"
     inkscape:window-x="1920"
     inkscape:cy="241.46591"
     inkscape:cx="32.594836"
     inkscape:zoom="0.89339177"
     showgrid="false"
     id="namedview59"
     inkscape:window-height="1058"
     inkscape:window-width="1918"
     inkscape:pageshadow="2"
     inkscape:pageopacity="0"
     guidetolerance="10"
     gridtolerance="10"
     objecttolerance="10"
     borderopacity="1"
     bordercolor="#666666"
     pagecolor="#ffffff" />
  <!-- 
  Generated using Slic3r 1.2.9
  http://slic3r.org/
   -->
  <polygon
     transform="matrix(3.7791508,0,0,3.7791508,-0.08036988,-0.17958557)"
     slic3r:type="contour"
     points="33.635199,0.054528 33.637387,0.05454 33.666148,0.054709 33.772339,0.054976 33.879488,0.055248 33.907579,0.054983 33.935927,0.054712 33.937691,0.054695 33.939472,0.054677 33.960231,0.054482 34.066567,0.056513 34.173808,0.058569 34.202435,0.058808 34.231307,0.059045 34.233092,0.05906 34.234896,0.059073 34.255883,0.059249 34.362372,0.062989 34.469716,0.066758 34.498819,0.067491 34.528156,0.068234 34.529952,0.06828 34.531768,0.068325 34.552975,0.068857 34.766296,0.081212 34.981243,0.093661 35.040739,0.096593 35.100683,0.09955 35.104328,0.099731 35.107995,0.09991 35.150923,0.102022 35.364795,0.120502 35.580163,0.139116 35.640868,0.143904 35.701992,0.148723 35.705691,0.149015 35.709411,0.14931 35.752972,0.152751 35.969916,0.177254 36.188279,0.201911 36.250591,0.208527 36.313316,0.215188 36.3171,0.215587 36.320907,0.215988 36.3655,0.220721 36.639369,0.258425 36.801184,0.280702 36.864052,0.288949 36.927304,0.297249 36.931124,0.29775 36.934963,0.298249 36.979908,0.304147 37.197031,0.338994 37.415464,0.374057 37.478627,0.383788 37.54218,0.393578 37.546011,0.394166 37.549867,0.39476 37.59504,0.40172 37.811784,0.441082 38.029799,0.48067 38.093084,0.491737 38.15674,0.50287 38.160588,0.503544 38.164448,0.504221 38.209728,0.51214 38.425683,0.555555 38.642891,0.599224 38.70618,0.611497 38.769832,0.623837 38.773679,0.62458 38.777543,0.625331 38.82282,0.634111 39.037532,0.681109 39.253456,0.728375 39.316707,0.741733 39.380316,0.755168 39.384148,0.75598 39.388007,0.756795 39.433191,0.766334 39.646128,0.81643 39.860227,0.866799 39.923472,0.881144 39.987052,0.895566 39.990871,0.89643 39.994716,0.8973 40.039724,0.907507 40.2503,0.960178 40.461947,1.013119 40.525272,1.028374 40.588915,1.043706 40.592716,1.04462 40.596536,1.045539 40.641299,1.056319 40.847724,1.110639 41.055103,1.165208 41.11814,1.181165 41.181464,1.197195 41.185215,1.198143 41.188983,1.199099 41.233176,1.210286 41.434944,1.265964 41.637527,1.321869 41.700176,1.338497 41.763079,1.355186 41.766772,1.356168 41.770479,1.357152 41.814012,1.368704 42.011827,1.42592 42.210308,1.483332 42.272832,1.500724 42.335563,1.518176 42.339216,1.519194 42.342884,1.520215 42.385919,1.532184 42.580472,1.591127 42.775551,1.65023 42.838195,1.668498 42.901008,1.686813 42.904631,1.687867 42.908263,1.688925 42.950964,1.701376 43.332639,1.825014 43.715075,1.948903 43.842188,1.98859 43.969552,2.028355 43.976752,2.030607 43.983971,2.032857 44.068816,2.059349 44.257831,2.124557 44.446944,2.189802 44.511391,2.211276 44.575872,2.232761 44.579491,2.233966 44.583112,2.235177 44.625764,2.24939 44.814359,2.317054 45.002904,2.384702 45.068423,2.407453 45.133923,2.4302 45.137571,2.431463 45.141215,2.432726 45.184176,2.447646 45.344787,2.507271 45.505231,2.566835 45.561943,2.587248 45.618596,2.607643 45.621727,2.608767 45.624856,2.609896 45.661764,2.623178 45.823015,2.684836 45.984007,2.746393 46.0418,2.767859 46.099503,2.789284 46.102671,2.790459 46.105835,2.791636 46.143172,2.805506 46.305504,2.869303 46.467475,2.932951 46.526496,2.955528 46.585379,2.978056 46.588595,2.979288 46.591799,2.980514 46.629663,2.994998 46.79352,3.061058 46.956908,3.126929 47.017291,3.150676 47.077508,3.174354 47.080772,3.175635 47.084027,3.176914 47.122515,3.19205 47.28828,3.260499 47.453479,3.328714 47.515331,3.353676 47.57698,3.378552 47.580304,3.379893 47.58362,3.38123 47.622816,3.397047 47.789347,3.467837 47.955219,3.53835 48.017987,3.564521 48.0805,3.590591 48.083855,3.591991 48.087204,3.593386 48.126791,3.609891 48.293204,3.682824 48.458876,3.755437 48.522043,3.782709 48.584939,3.809856 48.588312,3.811311 48.591659,3.812761 48.63136,3.829896 48.797271,3.904793 48.962387,3.979341 49.025656,4.007588 49.088628,4.035699 49.091992,4.037202 49.095335,4.038698 49.135008,4.05641 49.447331,4.203394 49.758107,4.349648 49.877256,4.405454 49.995819,4.460982 50.002151,4.46395 50.008451,4.466902 50.083124,4.501879 50.390056,4.654269 50.695451,4.805899 50.811296,4.863642 50.926563,4.921093 50.932756,4.924181 50.938919,4.927252 51.011948,4.963651 51.16252,5.041489 51.312411,5.11898 51.368496,5.14829 51.42432,5.177467 51.427332,5.179041 51.430336,5.180612 51.465864,5.199176 51.614172,5.27798 51.761892,5.356469 51.816279,5.38583 51.870448,5.415078 51.873391,5.416668 51.876327,5.418251 51.911031,5.436983 52.056732,5.516597 52.201951,5.595946 52.254343,5.625188 52.306564,5.654333 52.309428,5.655928 52.312283,5.657518 52.346015,5.676345 52.486903,5.754927 52.62744,5.83331 52.677004,5.861673 52.726451,5.889963 52.729187,5.89153 52.731919,5.893092 52.764175,5.911554 52.899892,5.988652 53.0354,6.065628 53.082019,6.092906 53.128564,6.120145 53.131168,6.121669 53.133768,6.123191 53.164476,6.141156 53.295995,6.217426 53.42744,6.293656 53.471404,6.320022 53.515347,6.346373 53.51784,6.34787 53.520327,6.349366 53.549679,6.366971 53.677971,6.443079 53.806336,6.519232 53.847935,6.544848 53.889559,6.570482 53.891952,6.571958 53.894347,6.573429 53.922551,6.5908 54.048616,6.667436 54.174904,6.744202 54.214396,6.76921 54.25396,6.794261 54.256272,6.795726 54.258587,6.797193 54.285848,6.814454 54.53612,6.972575 54.787148,7.131176 54.86004,7.17936 54.933156,7.227687 54.937624,7.230641 54.942108,7.233605 54.994788,7.268425 55.248967,7.437502 55.504644,7.607578 55.571488,7.654332 55.638735,7.701359 55.64308,7.704398 55.647451,7.707456 55.698648,7.743261 55.959935,7.925453 56.223631,8.109324 56.28416,8.153853 56.345247,8.198788 56.349495,8.201914 56.353784,8.205069 56.403796,8.241861 56.541436,8.340768 56.680835,8.440945 56.710003,8.463105 56.739547,8.485549 56.741683,8.487175 56.74386,8.488825 56.769068,8.50798 56.913352,8.613503 57.059768,8.72059 57.087816,8.742295 57.116272,8.76432 57.118448,8.766003 57.120652,8.767713 57.146291,8.787552 57.298408,8.900606 57.453091,9.015567 57.47988,9.036644 57.507128,9.058075 57.509352,9.059825 57.511608,9.061605 57.537783,9.082198 57.696508,9.203078 57.858251,9.326257 57.883208,9.346385 57.908639,9.366896 57.910883,9.36871 57.913172,9.370556 57.939604,9.391876 58.103627,9.52039 58.27114,9.651645 58.293712,9.670386 58.316775,9.689523 58.31902,9.691387 58.321307,9.693289 58.347708,9.715204 58.516119,9.851164 58.688519,9.990341 58.70832,10.007276 58.728595,10.024609 58.73082,10.026512 58.733092,10.02846 58.759256,10.050829 59.108028,10.34664 59.465887,10.650154 59.49314,10.674587 59.521112,10.699656 59.52548,10.703573 59.529956,10.707587 59.581292,10.75361 59.935047,11.07666 60.299748,11.409702 60.312759,11.422231 60.32618,11.43515 60.330283,11.439105 60.334516,11.443182 60.382791,11.489663 60.70156,11.807867 61.031707,12.137434 61.061304,12.166984 61.09196,12.197588 61.094607,12.200364 61.097356,12.203239 61.141424,12.249447 61.204635,12.319295 61.270391,12.391957 61.643627,12.80439 61.826668,13.006659 61.845272,13.028135 62.293643,13.574273 62.391856,13.693977 62.394847,13.697833 62.430956,13.746189 62.437568,13.755042 62.89402,14.366319 62.911331,14.391173 63.053664,14.602214 63.071771,14.629061 63.209111,14.832705 63.349391,15.040697 63.3734,15.079446 63.37722,15.085617 63.526184,15.332638 63.549927,15.371996 63.56486,15.396761 63.567239,15.400709 63.75576,15.713316 63.781879,15.760391 63.790843,15.776548 63.921056,16.016798 63.965756,16.099269 63.976783,16.119614 63.980563,16.126598 64.11778,16.379752 64.145123,16.434949 64.157787,16.460522 64.271679,16.695259 64.324443,16.804011 64.332947,16.821549 64.336888,16.829674 64.441735,17.045767 64.469704,17.109518 64.485039,17.144479 64.584807,17.376165 64.639528,17.503232 64.646291,17.518937 64.649995,17.527549 64.73274,17.719704 64.761036,17.792842 64.778363,17.837645 64.8662,18.068692 64.920007,18.210239 64.925519,18.224723 64.928892,18.233598 64.995916,18.4099 65.023008,18.48905 65.040987,18.541555 65.115072,18.761776 65.164216,18.907854 65.168571,18.920797 65.171456,18.929384 65.224227,19.086251 65.251763,19.176323 65.271128,19.23964 65.338063,19.462919 65.385116,19.619876 65.388851,19.632343 65.391475,19.641105 65.436631,19.791747 65.464584,19.893892 65.485167,19.969153 65.545704,20.195672 65.590311,20.362573 65.593543,20.374687 65.595931,20.383615 65.63492,20.52953 65.662316,20.643144 65.683303,20.730195 65.736467,20.956651 65.777196,21.130164 65.779932,21.141828 65.782031,21.150767 65.814944,21.290966 65.841403,21.415673 65.86234,21.514372 65.908596,21.738982 65.945208,21.916744 65.947519,21.927963 65.949352,21.936846 65.977063,22.071405 66.002252,22.206616 66.022731,22.316539 66.062648,22.537886 66.095091,22.717841 66.097031,22.728631 66.098615,22.737403 66.121899,22.866541 66.1455,23.01139 66.165115,23.131817 66.199232,23.348762 66.227592,23.529126 66.229223,23.539495 66.230575,23.548119 66.250072,23.672074 66.271771,23.825441 66.290151,23.955345 66.318987,24.166999 66.343411,24.346273 66.344768,24.356246 66.345916,24.36469 66.362135,24.483719 66.381656,24.644232 66.398444,24.782296 66.422519,24.988029 66.44322,25.164986 66.444339,25.174575 66.445307,25.182823 66.458684,25.297181 66.475771,25.463231 66.490655,25.607869 66.510424,25.807282 66.52764,25.98098 66.528555,25.990205 66.52936,25.998244 66.54026,26.108177 66.554864,26.276864 66.567703,26.425289 66.58376,26.617032 66.597883,26.785745 66.598616,26.794574 66.599272,26.802342 66.608075,26.907443 66.620308,27.07647 66.631148,27.226366 66.6441,27.410156 66.655579,27.573153 66.656172,27.58159 66.656696,27.589074 66.663767,27.689437 66.673667,27.858379 66.6825,28.009096 66.692748,28.186586 66.701883,28.344929 66.702351,28.353059 66.702776,28.360314 66.708355,28.456985 66.716047,28.625559 66.722936,28.776598 66.730824,28.949316 66.737895,29.104063 66.738255,29.111959 66.738576,29.119038 66.742863,29.212941 66.752235,29.548117 66.76066,29.849284 66.770603,30.186221 66.779544,30.488976 66.78,30.50439 66.780411,30.518237 66.785816,30.701414 66.787607,30.834925 66.789224,30.955142 66.791411,31.088563 66.793384,31.208702 66.793479,31.214781 66.793571,31.220255 66.794752,31.292492 66.795604,31.425572 66.796375,31.545357 66.797715,31.678965 66.79892,31.79922 66.798983,31.805303 66.799043,31.810771 66.799776,31.883038 66.799816,32.015714 66.799847,32.135009 66.800468,32.26942 66.801036,32.390274 66.801064,32.396384 66.801092,32.401877 66.801424,32.474499 66.80078,32.606767 66.8002,32.725502 66.800207,32.861283 66.800216,32.983167 66.800216,32.994864 66.800224,33.068153 66.79892,33.199213 66.797744,33.316594 66.797135,33.45349 66.796596,33.576095 66.796575,33.582308 66.796552,33.587871 66.796232,33.661696 66.794284,33.790991 66.792544,33.906459 66.791323,34.044396 66.790232,34.167587 66.790184,34.173839 66.790135,34.17942 66.78948,34.253747 66.783919,34.50584 66.778971,34.73022 66.77478,35.009847 66.771047,35.25874 66.77086,35.271315 66.770695,35.282512 66.768447,35.4321 66.76362,35.597843 66.759351,35.74414 66.75522,35.936963 66.751575,36.10716 66.751392,36.115867 66.751219,36.12356 66.749,36.227239 66.74348,36.387939 66.738651,36.528812 66.733536,36.724051 66.729047,36.8952 66.728812,36.904031 66.728607,36.911776 66.725851,37.016952 66.7198,37.172275 66.714524,37.307392 66.708475,37.50496 66.70322,37.676835 66.702944,37.685795 66.702703,37.693592 66.699444,37.800371 66.692972,37.950095 66.687383,38.079244 66.680468,38.278959 66.674508,38.451227 66.674195,38.460324 66.673927,38.468172 66.670172,38.576619 66.665639,38.67307 66.665638,38.67307 66.65762,38.843715 66.649887,39.045272 66.643279,39.217556 66.642928,39.226787 66.642632,39.234679 66.638412,39.344803 66.631455,39.483064 66.625568,39.600111 66.617107,39.80312 66.609948,39.974975 66.609551,39.984332 66.609215,39.992256 66.604556,40.104003 66.597387,40.238624 66.591384,40.351451 66.582111,40.558428 66.574336,40.731903 66.573903,40.74152 66.573544,40.749583 66.568391,40.86446 66.560672,41.000691 66.554267,41.1137 66.543676,41.332439 66.534891,41.513896 66.5344,41.524143 66.533988,41.532643 66.528047,41.65514 66.520992,41.771911 66.515199,41.867724 66.504911,42.063112 66.496472,42.223419 66.495984,42.232667 66.495591,42.24026 66.489759,42.350924 66.482231,42.467684 66.476112,42.562551 66.464507,42.765316 66.455084,42.930059 66.454527,42.939744 66.454076,42.947611 66.447443,43.06354 66.43912,43.183871 66.43242,43.280691 66.418852,43.497387 66.407931,43.671736 66.407276,43.682175 66.406751,43.69058 66.398912,43.815683 66.390011,43.935056 66.382928,44.030151 66.367596,44.252687 66.35538,44.429971 66.354631,44.4408 66.35404,44.449431 66.345099,44.579236 66.335552,44.696875 66.328011,44.789732 66.310695,45.015956 66.297024,45.194515 66.296171,45.205628 66.295495,45.2144 66.285288,45.347687 66.275003,45.46304 66.266951,45.553364 66.247367,45.780984 66.232035,45.959208 66.231064,45.970479 66.230299,45.979304 66.21866,46.114615 66.209587,46.207564 66.202528,46.279895 66.1846,46.466691 66.170647,46.612044 66.169752,46.621355 66.169056,46.628607 66.15832,46.740472 66.148596,46.831807 66.141048,46.902627 66.121339,47.088148 66.10606,47.232003 66.105072,47.241295 66.104307,47.2485 66.092447,47.360068 66.082004,47.449763 66.073927,47.519192 66.05234,47.702415 66.035623,47.844232 66.034536,47.853431 66.033699,47.860552 66.020683,47.971012 66.009436,48.059075 66.000724,48.127235 65.977159,48.307128 65.958919,48.446352 65.957736,48.455391 65.956816,48.462387 65.942604,48.570923 65.930444,48.657351 65.921019,48.724364 65.895407,48.899888 65.875552,49.035975 65.874267,49.044784 65.873268,49.051623 65.857832,49.157407 65.851516,49.198656 65.851515,49.198656 65.835072,49.306055 65.808064,49.474103 65.787043,49.60488 65.785692,49.613291 65.784632,49.619839 65.768403,49.720828 65.755088,49.801155 65.744659,49.864008 65.716652,50.023095 65.694743,50.147568 65.693355,50.155496 65.692256,50.161699 65.675508,50.256859 65.661228,50.335371 65.649983,50.39722 65.620423,50.54928 65.597132,50.669051 65.595663,50.676592 65.594516,50.682527 65.576931,50.77296 65.543683,50.930256 65.517284,51.055147 65.451375,51.345932 65.399052,51.576803 65.395784,51.591207 65.393192,51.602643 65.354048,51.775359 65.333996,51.857447 65.317771,51.923848 65.280467,52.066252 65.250291,52.181448 65.248479,52.18836 65.247012,52.193951 65.225328,52.276735 65.202255,52.3633 65.183404,52.434051 65.142604,52.576847 65.109255,52.69356 65.107296,52.700439 65.105688,52.706059 65.082176,52.788359 65.055435,52.881244 65.033339,52.957988 64.988672,53.102831 64.951771,53.222512 64.949644,53.229431 64.947879,53.235152 64.922356,53.317907 64.890811,53.418444 64.864451,53.502448 64.81494,53.650239 64.773572,53.773727 64.771228,53.780735 64.769263,53.786592 64.741223,53.870304 64.70376,53.977983 64.672091,54.06898 64.616995,54.218364 64.570444,54.344599 64.567847,54.351628 64.565656,54.357567 64.534696,54.441491 64.491184,54.555607 64.454003,54.6531 64.393903,54.802584 64.342564,54.930283 64.339751,54.937276 64.33736,54.943243 64.303839,55.026608 64.26736,55.115447 64.235875,55.192124 64.188104,55.302915 64.146872,55.398539 64.144663,55.403676 64.142752,55.408111 64.116352,55.469347 64.076443,55.560828 64.04176,55.640339 63.991716,55.749963 63.948207,55.845264 63.945892,55.850327 63.943884,55.854735 63.916335,55.915084 63.826356,56.103767 63.747611,56.268888 63.641388,56.482971 63.548431,56.670312 63.543499,56.680256 63.539183,56.688956 63.480428,56.807375 63.430399,56.903492 63.386111,56.988576 63.330219,57.092316 63.280739,57.184156 63.278168,57.188919 63.275896,57.193135 63.245371,57.2498 63.192123,57.34618 63.144752,57.431923 63.087135,57.53308 63.035892,57.623051 63.033251,57.627692 63.030899,57.631816 62.99948,57.686979 62.943128,57.782899 62.892792,57.868591 62.833527,57.96692 62.780588,58.054751 62.777871,58.059256 62.775439,58.06328 62.743159,58.11684 62.68388,58.211571 62.630739,58.296488 62.569844,58.391831 62.515255,58.477288 62.512468,58.481647 62.509967,58.485564 62.476832,58.537427 62.414883,58.631028 62.359203,58.71516 62.296739,58.807956 62.240592,58.891363 62.237731,58.895604 62.235168,58.899423 62.201212,58.949851 62.137043,59.04216 62.079235,59.125312 62.01544,59.215799 61.957972,59.297311 61.955055,59.301448 61.952432,59.305175 61.91778,59.354315 61.784735,59.533588 61.6647,59.695339 61.534063,59.869492 61.416196,60.026619 61.410228,60.034583 61.40484,60.041771 61.333863,60.136388 61.19764,60.306511 61.0745,60.460303 60.941563,60.625144 60.821384,60.774155 60.815319,60.781676 60.809844,60.788467 60.737835,60.877748 60.669667,60.958712 60.608028,61.031935 60.541376,61.110687 60.481103,61.181912 60.478068,61.185495 60.475319,61.188744 60.439275,61.231336 60.371696,61.309219 60.310592,61.379631 60.244183,61.45584 60.184143,61.524748 60.18112,61.528215 60.178391,61.531344 60.142499,61.572536 60.073692,61.649579 60.011515,61.719208 59.943419,61.795208 59.881883,61.863888 59.878795,61.867344 59.875995,61.870472 59.83922,61.911511 59.771959,61.9848 59.711228,62.050983 59.644055,62.123996 59.583388,62.189927 59.58034,62.193239 59.577584,62.196235 59.541332,62.235635 59.476059,62.304984 59.417172,62.367543 59.351288,62.437379 59.291835,62.5004 59.288843,62.503572 59.286135,62.506436 59.250599,62.544104 59.187748,62.609307 59.131091,62.668092 59.066863,62.734576 59.008975,62.794508 59.006063,62.797524 59.003427,62.800248 58.968799,62.8361 58.88204,62.923803 58.803911,63.00278 58.713711,63.093696 58.632491,63.175572 58.628407,63.179696 58.624736,63.183403 58.576147,63.232376 58.486907,63.320144 58.406687,63.399044 58.312132,63.491747 58.22712,63.575091 58.222828,63.579291 58.218975,63.583064 58.168052,63.632987 58.076476,63.720815 57.994295,63.799632 57.895591,63.893992 57.807023,63.978664 57.802559,63.982936 57.798548,63.986771 57.745395,64.03758 57.651596,64.125491 57.567587,64.204228 57.465004,64.300079 57.373124,64.385927 57.368472,64.390275 57.364312,64.394167 57.309039,64.445808 57.213135,64.533816 57.12742,64.612487 57.021224,64.709663 56.9263,64.796515 56.921484,64.800923 56.917188,64.804859 56.859931,64.857252 56.76202,64.945411 56.674687,65.024028 56.565168,65.122347 56.467487,65.210052 56.462519,65.214512 56.458083,65.218488 56.398996,65.271527 56.259191,65.394912 56.134768,65.504727 55.977659,65.643048 55.837823,65.766164 55.830695,65.77244 55.824351,65.778024 55.739568,65.852671 55.598295,65.975308 55.472864,66.084183 55.314308,66.221619 55.173528,66.343651 55.166315,66.3499 55.159919,66.355444 55.074156,66.429779 54.931991,66.552084 54.805976,66.660499 54.647363,66.796932 54.50676,66.917871 54.499532,66.924079 54.493136,66.929583 54.407207,67.003496 54.335983,67.064648 54.272899,67.118816 54.193992,67.186631 54.124099,67.246704 54.120504,67.249791 54.117324,67.252527 54.074527,67.289304 54.003308,67.350511 53.940235,67.404728 53.861815,67.47228 53.79236,67.532103 53.78878,67.535183 53.785612,67.537911 53.743079,67.574536 53.682,67.627175 53.627903,67.6738 53.561079,67.731576 53.501888,67.782751 53.49884,67.785391 53.49614,67.787719 53.459904,67.819047 53.398944,67.871791 53.344943,67.91852 53.278684,67.976103 53.219988,68.027103 53.216976,68.029727 53.214299,68.032056 53.178383,68.063264 53.1176,68.116135 53.06374,68.162991 52.998143,68.220376 52.940015,68.27124 52.937028,68.273855 52.934384,68.276167 52.898848,68.307263 52.838296,68.360287 52.78462,68.407287 52.719775,68.464496 52.6623,68.515207 52.659352,68.517807 52.656735,68.520112 52.621623,68.551088 52.561367,68.604288 52.507936,68.651471 52.443912,68.708527 52.387132,68.759127 52.384224,68.761719 52.381644,68.764015 52.346996,68.794887 52.287023,68.8484 52.233816,68.895879 52.170391,68.953088 52.114112,69.003855 52.111231,69.006456 52.108683,69.00876 52.074407,69.039672 52.014759,69.09352 51.961803,69.14132 51.898868,69.198831 51.843007,69.249888 51.840156,69.252495 51.83762,69.254807 51.803647,69.285848 51.744367,69.340008 51.691732,69.388111 51.629247,69.446 51.573764,69.497407 51.570932,69.500039 51.568415,69.502368 51.53474,69.533567 51.417611,69.642664 51.3136,69.739559 51.189692,69.856919 51.079647,69.961152 51.074052,69.966447 51.069079,69.97116 51.002499,70.034208 50.887559,70.14428 50.785524,70.241999 50.662836,70.361935 50.553916,70.468415 50.548396,70.473815 50.543496,70.478599 50.477819,70.542808 50.365536,70.653599 50.265968,70.751855 50.144124,70.875127 50.036083,70.984432 50.030623,70.989952 50.02578,70.994847 49.960803,71.060592 49.851655,71.171832 49.755068,71.270263 49.633696,71.397647 49.526287,71.510368 49.520863,71.516064 49.516068,71.521095 49.451571,71.588784 49.374572,71.669615 49.306656,71.740935 49.218715,71.83636 49.14114,71.920543 49.137215,71.924808 49.133755,71.92856 49.087056,71.979239 49.01214,72.059999 48.946248,72.131031 48.858191,72.229432 48.780756,72.315967 48.776839,72.320352 48.773396,72.324207 48.726703,72.376384 48.654036,72.456927 48.590368,72.527495 48.502052,72.629239 48.42468,72.718375 48.420747,72.722896 48.417304,72.726863 48.370519,72.78076 48.300268,72.860919 48.239,72.930823 48.150267,73.036304 48.07288,73.128287 48.068935,73.132984 48.065491,73.13708 48.018496,73.192943 47.951059,73.272128 47.892571,73.340816 47.803824,73.449647 47.726848,73.544047 47.7229,73.548887 47.71948,73.553087 47.672423,73.610784 47.608048,73.688471 47.552571,73.755432 47.464264,73.866983 47.388144,73.963127 47.384208,73.968103 47.38082,73.972391 47.333872,74.031687 47.272595,74.107616 47.220156,74.172607 47.132447,74.286576 47.05738,74.384119 47.053456,74.389215 47.050095,74.393584 47.003283,74.454408 46.945124,74.528367 46.89572,74.591191 46.8088,74.707231 46.734971,74.805792 46.731059,74.811008 46.72774,74.815431 46.681111,74.877696 46.623872,74.952367 46.575659,75.015264 46.486283,75.137792 46.411,75.240999 46.40696,75.246535 46.403556,75.251191 46.3553,75.317359 46.301364,75.389535 46.256356,75.449759 46.16834,75.573623 46.094888,75.676983 46.09088,75.682631 46.087531,75.687344 46.039604,75.754791 45.988859,75.824368 45.946936,75.881856 45.860412,76.006639 45.788924,76.109735 45.784948,76.115471 45.78166,76.120207 45.734076,76.188831 45.686224,76.255895 45.647123,76.310704 45.561819,76.43632 45.492103,76.538984 45.48814,76.544815 45.484895,76.549592 45.43744,76.619471 45.368479,76.718416 45.312796,76.798303 45.182879,76.993616 45.077992,77.151311 45.071896,77.160479 45.066964,77.167887 44.993924,77.277695 44.961608,77.324879 44.936068,77.36216 44.871347,77.460736 44.820211,77.538632 44.817087,77.543384 44.814619,77.547144 44.777156,77.604207 44.746055,77.650016 44.721787,77.68576 44.65704,77.784895 44.606511,77.862248 44.60334,77.867103 44.600864,77.870895 44.56282,77.929143 44.532844,77.973575 44.509775,78.007768 44.4448,78.107479 44.394788,78.184215 44.391552,78.189175 44.389063,78.192992 44.350248,78.252559 44.321308,78.295631 44.299383,78.328264 44.233948,78.428575 44.184363,78.504592 44.181055,78.509664 44.178543,78.513512 44.138723,78.574552 44.110704,78.616319 44.08984,78.647415 44.023692,78.748375 43.974431,78.82356 43.97102,78.828767 43.968475,78.832632 43.927396,78.895343 43.90016,78.935863 43.880267,78.965448 43.813151,79.067184 43.764128,79.141487 43.760595,79.14684 43.758011,79.150768 43.715395,79.21536 43.679212,79.268839 43.653347,79.307064 43.559883,79.447152 43.493064,79.547303 43.488036,79.554839 43.484436,79.560231 43.423727,79.651224 43.388599,79.702496 43.364319,79.73792 43.267828,79.880119 43.201152,79.978391 43.195779,79.986312 43.192067,79.991784 43.127112,80.087511 43.092323,80.137376 43.069247,80.170464 42.967208,80.317711 42.899519,80.4154 42.893616,80.423919 42.889704,80.429567 42.818183,80.532784 42.784327,80.580216 42.762995,80.610096 42.656159,80.760504 42.588864,80.855255 42.582408,80.864343 42.578339,80.87008 42.499856,80.980567 42.467064,81.025383 42.447731,81.051808 42.33544,81.206231 42.26924,81.297271 42.262099,81.307096 42.257888,81.312887 42.170784,81.432679 42.1394,81.474167 42.122579,81.496408 42.003492,81.655711 41.939643,81.741112 41.931559,81.75192 41.927231,81.75772 41.828279,81.89008 41.805655,81.918864 41.7953,81.932039 41.697452,82.058775 41.652672,82.116767 41.6454,82.126191 41.642071,82.130504 41.552452,82.246583 41.531524,82.272175 41.523839,82.281576 41.4199,82.411791 41.381715,82.459624 41.37322,82.470263 41.370092,82.474175 41.264579,82.606368 41.24592,82.628199 41.241628,82.633215 41.130843,82.766952 41.105372,82.797703 41.095036,82.810167 41.092659,82.81304 40.962927,82.96964 40.947256,82.987095 40.829355,83.123824 40.816043,83.139248 40.645771,83.336704 40.639384,83.343455 40.572164,83.418183 40.561927,83.42956 40.459011,83.543968 40.389704,83.620727 40.315828,83.702543 40.311188,83.707927 40.141699,83.887512 39.974184,84.065015 39.956772,84.084591 39.788308,84.254023 39.612759,84.430568 39.608196,84.435495 39.603439,84.44064 39.6017,84.442519 39.599887,84.44448 39.57948,84.466527 39.407511,84.628016 39.229184,84.795479 39.216576,84.808303 39.203503,84.821608 39.201559,84.823584 39.199547,84.825632 39.176704,84.848879 39.026303,84.979504 38.871256,85.114159 38.853311,85.13112 38.834815,85.148616 38.832948,85.150383 38.831015,85.152208 38.809007,85.173024 38.656391,85.294696 38.49998,85.419391 38.474027,85.441992 38.447428,85.465151 38.445335,85.466976 38.443196,85.468847 38.418595,85.490256 38.263895,85.601944 38.106388,85.715663 38.071411,85.743312 38.035799,85.771464 38.033451,85.77332 38.031063,85.775216 38.003452,85.797039 37.84672,85.897975 37.688315,85.999992 37.64332,86.031775 37.597848,86.063903 37.595204,86.065767 37.592535,86.067656 37.561424,86.089639 37.402639,86.179264 37.243448,86.269119 37.187511,86.303848 37.131427,86.338664 37.128447,86.340512 37.125459,86.342368 37.09032,86.364175 36.929328,86.442127 36.769311,86.519616 36.701615,86.555808 36.634331,86.591768 36.630963,86.593568 36.627612,86.595367 36.587908,86.616584 36.42446,86.682279 36.263471,86.746984 36.18352,86.782607 36.104771,86.817704 36.100975,86.8194 36.097236,86.821063 36.052448,86.841023 35.969623,86.868832 35.888784,86.895983 35.844472,86.912431 35.80122,86.928487 35.799132,86.929271 35.797095,86.930024 35.772435,86.939176 35.688868,86.963503 35.60764,86.987159 35.560403,87.002336 35.514492,87.017095 35.512291,87.0178 35.510152,87.018487 35.484172,87.02684 35.345375,87.059096 35.210983,87.090328 35.127571,87.11168 35.046804,87.132351 35.042988,87.133335 35.039292,87.134279 34.994176,87.145823 34.923599,87.158432 34.855631,87.170568 34.811368,87.179231 34.768739,87.187576 34.766712,87.187975 34.764755,87.188352 34.740784,87.193048 34.669308,87.203247 34.600607,87.213064 34.554748,87.220207 34.510671,87.22708 34.508576,87.227407 34.506555,87.22772 34.481779,87.231584 34.409272,87.239359 34.339712,87.246815 34.292367,87.252312 34.24694,87.257583 34.24478,87.257839 34.242712,87.258087 34.21716,87.261055 34.143495,87.266352 34.07292,87.271415 34.024224,87.275143 33.977563,87.278728 33.97534,87.278903 33.973216,87.279055 33.946955,87.281072 33.871984,87.283823 33.800203,87.286464 33.750304,87.288335 33.702536,87.290119 33.700264,87.290199 33.698079,87.290288 33.67116,87.291296 33.589895,87.292336 33.512124,87.293344 33.50842,87.293383 33.504868,87.293423 33.46099,87.293992 33.428309,87.293839 33.416374,87.293784 33.344267,87.294136 33.317924,87.294263 33.311563,87.294288 33.30924,87.294295 33.230277,87.294672 33.210096,87.294703 33.202791,87.294712 33.12385,87.29248 33.095295,87.291679 33.088224,87.29148 33.08567,87.291408 32.997825,87.288919 32.975023,87.288263 32.966719,87.288023 32.889282,87.283376 32.861077,87.281687 32.854157,87.281271 32.851635,87.281119 32.76569,87.275968 32.743089,87.274655 32.734695,87.274175 32.658856,87.267208 32.630687,87.264615 32.623953,87.263991 32.621454,87.263768 32.537878,87.256088 32.515359,87.254119 32.506735,87.253368 32.360579,87.232879 32.3046,87.225032 32.291765,87.223223 32.286846,87.222528 32.127653,87.200207 32.082042,87.194208 32.062993,87.191696 31.92431,87.163184 31.866377,87.151271 31.854586,87.148848 31.84966,87.147832 31.703823,87.117847 31.657139,87.108895 31.635476,87.104752 31.534882,87.078176 31.488195,87.065839 31.480012,87.06368 31.476214,87.06268 31.375392,87.036056 31.33884,87.027088 31.320407,87.022559 31.224672,86.992384 31.17639,86.977168 31.168901,86.974815 31.165126,86.973616 31.073181,86.944639 31.035347,86.933583 31.014667,86.927536 30.924004,86.89428 30.874438,86.876096 30.867638,86.8736 30.863922,86.87224 30.780734,86.84172 30.741385,86.828375 30.718196,86.820512 30.632821,86.784895 30.5825,86.763904 30.576368,86.761344 30.572756,86.75984 30.497977,86.728639 30.456982,86.712824 30.431134,86.702864 30.277766,86.627592 30.18105,86.58012 30.170481,86.574935 30.163818,86.571664 30.035386,86.508632 29.946987,86.468583 29.884686,86.440352 29.75223,86.362784 29.658879,86.308111 29.650388,86.303136 29.644399,86.299623 29.541744,86.239504 29.446622,86.188024 29.373733,86.148591 29.259629,86.071463 29.172196,86.012368 29.165219,86.007655 29.159876,86.004048 29.076064,85.9474 28.973031,85.882895 28.888933,85.830248 28.793925,85.758239 28.716375,85.699463 28.710687,85.695159 28.706049,85.691639 28.637977,85.640047 28.529521,85.563543 28.43675,85.498104 28.358732,85.433384 28.291995,85.378007 28.287273,85.374095 28.283236,85.370752 28.226901,85.324015 28.114011,85.236279 28.013989,85.158535 27.95093,85.101744 27.89506,85.051424 27.891073,85.047831 27.887539,85.044647 27.840102,85.001928 27.723793,84.903263 27.617932,84.813456 27.552843,84.749583 27.493593,84.691439 27.489146,84.68708 27.485095,84.683111 27.43228,84.63128 27.273582,84.483888 27.125127,84.346007 27.079117,84.296919 27.036081,84.251015 27.032375,84.247055 27.028907,84.243351 26.984964,84.196472 26.823821,84.032695 26.670017,83.876383 26.646418,83.849672 26.623898,83.824168 26.621443,83.821391 26.619104,83.818744 26.590093,83.785895 26.466789,83.651975 26.347715,83.522655 26.331571,83.503647 26.315985,83.485303 26.313778,83.482704 26.31164,83.480184 26.285509,83.449415 26.162136,83.309168 26.041883,83.172463 26.031914,83.1604 26.022193,83.148639 26.020168,83.146192 26.018196,83.1438 25.994296,83.114888 25.871249,82.970031 25.750431,82.827799 25.745478,82.821672 25.740619,82.815647 25.738739,82.813311 25.73689,82.811016 25.71468,82.783488 25.591916,82.63472 25.470648,82.48776 25.469905,82.486823 25.469171,82.485895 25.467408,82.483656 25.465665,82.481439 25.444857,82.454983 25.420546,82.42468 25.396399,82.394583 25.33857,82.322472 25.281149,82.250887 25.238649,82.197911 25.20139,82.151456 25.184078,82.128912 25.027223,81.927863 24.941901,81.818503 24.92236,81.792128 24.498655,81.227311 24.448945,81.160991 24.447416,81.158887 24.434109,81.140399 24.431504,81.136776 24.135577,80.725647 24.126178,80.712288 24.062341,80.621047 24.05245,80.606904 23.832961,80.293207 23.817364,80.270472 23.728645,80.140567 23.716882,80.123344 23.55897,79.892112 23.538867,79.862671 23.518588,79.832552 23.518215,79.831991 23.417482,79.681608 23.415609,79.678823 23.40367,79.660992 23.403447,79.660663 23.251026,79.433104 23.232488,79.405256 23.230017,79.401543 23.147318,79.27644 23.136316,79.2598 23.127321,79.246191 23.126124,79.244376 23.012336,79.072232 22.992543,79.042359 22.988446,79.036176 22.907017,78.912015 22.890159,78.886311 22.88181,78.873576 22.880079,78.870935 22.775072,78.710816 22.753959,78.678959 22.748292,78.670408 22.667701,78.547063 22.646054,78.513936 22.638205,78.501919 22.636098,78.498688 22.53786,78.348336 22.515283,78.314455 22.50801,78.303544 22.427867,78.180919 22.40204,78.141408 22.394587,78.129999 22.392188,78.126328 22.29933,77.984248 22.275061,77.948223 22.266055,77.934855 22.18601,77.812928 22.1563,77.767672 22.149176,77.756824 22.146529,77.752791 22.058096,77.618096 22.031871,77.579615 22.020931,77.563567 21.94066,77.442288 21.907175,77.391703 21.900327,77.381351 21.897467,77.377039 21.812776,77.249072 21.754753,77.165639 21.728185,77.127431 21.618474,76.964562 21.618475,76.964562 21.491854,76.776592 21.478483,76.756735 21.47236,76.747648 21.307533,76.502951 21.253643,76.427727 21.225378,76.388272 21.092877,76.196823 21.023373,76.096407 21.01313,76.081608 21.007757,76.073839 20.882172,75.892383 20.821821,75.810727 20.787548,75.764344 20.65355,75.57652 20.57745,75.469864 20.567502,75.45592 20.561852,75.447992 20.440317,75.277648 20.378419,75.196655 20.341003,75.147687 20.215952,74.978256 20.14036,74.87584 20.131385,74.863679 20.125963,74.856327 20.016658,74.708224 19.983209,74.665591 19.96201,74.638576 19.898963,74.555407 19.859009,74.502711 19.85462,74.49692 19.85184,74.493256 19.798533,74.422935 19.763415,74.378999 19.74069,74.350568 19.677236,74.268464 19.636178,74.215336 19.631812,74.209688 19.628983,74.206023 19.57598,74.137448 19.539184,74.092288 19.514912,74.062496 19.451161,73.981679 19.409104,73.92836 19.404759,73.922863 19.401897,73.919223 19.349236,73.852464 19.310925,73.806383 19.285196,73.775432 19.221553,73.696439 19.17882,73.6434 19.174526,73.638064 19.17164,73.63448 19.119603,73.569887 19.079825,73.522983 19.052692,73.490984 18.989198,73.413792 18.945878,73.361128 18.941626,73.35596 18.938725,73.352431 18.88726,73.289872 18.846059,73.242215 18.817555,73.209247 18.754204,73.133776 18.710369,73.081559 18.706158,73.076536 18.703242,73.073064 18.65228,73.012352 18.565904,72.9152 18.505386,72.847128 18.379046,72.701064 18.290535,72.598727 18.282129,72.589015 18.276241,72.582207 18.17469,72.4648 18.08321,72.365528 18.017757,72.294511 17.891892,72.15448 17.801839,72.054287 17.793544,72.045064 17.787606,72.038456 17.687467,71.927055 17.591397,71.826335 17.521523,71.753071 17.39597,71.618472 17.30465,71.520576 17.296424,71.511768 17.29044,71.505352 17.191275,71.399055 17.091201,71.297535 17.01749,71.222768 16.892034,71.093008 16.799633,70.997431 16.791452,70.988976 16.785422,70.982728 16.686823,70.880751 16.605531,70.800615 16.545107,70.741048 16.446097,70.641759 16.372501,70.56796 16.366065,70.561504 16.361283,70.556704 16.28381,70.479015 16.200783,70.399144 16.13875,70.339463 16.039479,70.242519 15.965318,70.170096 15.958874,70.1638 15.95406,70.159104 15.876494,70.083368 15.792088,70.004071 15.728821,69.944631 15.629121,69.849751 15.554397,69.77864 15.547928,69.772487 15.543077,69.76788 15.465235,69.693799 15.37983,69.6154 15.315713,69.556543 15.215381,69.463423 15.140062,69.393527 15.133552,69.387487 15.128668,69.382951 15.050355,69.310271 14.964117,69.232648 14.899389,69.174399 14.797913,69.082239 14.72175,69.013064 14.715166,69.007088 14.710223,69.002599 14.630981,68.930632 14.544141,68.853703 14.479053,68.796031 14.376185,68.704256 14.299077,68.635464 14.292394,68.629512 14.287387,68.625048 14.206962,68.553295 14.119732,68.476984 14.054484,68.419912 13.950146,68.328159 13.872101,68.259528 13.865312,68.25356 13.860235,68.249088 13.77853,68.177247 13.691052,68.101439 13.625769,68.044864 13.519941,67.952815 13.440964,67.884127 13.43407,67.878136 13.428924,67.873656 13.345915,67.801463 13.25163,67.720263 13.181404,67.659799 13.066016,67.560208 12.98008,67.486048 12.97255,67.479544 12.96694,67.474704 12.87627,67.396447 12.781743,67.315296 12.711439,67.254927 12.594565,67.154496 12.507636,67.079791 12.499997,67.073228 12.494313,67.068339 12.402313,66.98928 12.293381,66.895544 12.212358,66.825832 12.07678,66.709195 11.975938,66.622439 11.967063,66.614803 11.960461,66.609119 11.853579,66.517172 11.744555,66.422671 11.663281,66.352219 11.527656,66.234779 11.426548,66.147228 11.417662,66.139535 11.41104,66.1338 11.304086,66.041187 11.133168,65.890772 11.005211,65.778163 10.795076,65.593556 10.637769,65.455347 10.623979,65.443231 10.613655,65.434164 10.447679,65.288347 10.363055,65.212415 10.299125,65.155056 10.196967,65.063603 10.119794,64.994519 10.11313,64.988556 10.108089,64.984047 10.027899,64.912256 9.944249,64.835955 9.880733,64.778012 9.781293,64.687524 9.705781,64.618812 9.699299,64.612916 9.694378,64.608436 9.616459,64.537536 9.534139,64.460963 9.471303,64.402523 9.375103,64.313255 9.30167,64.245115 9.29541,64.239307 9.290634,64.234872 9.21538,64.16504 9.134539,64.088379 9.072518,64.029567 8.979882,63.941907 8.908812,63.874656 8.902791,63.868959 8.898174,63.864587 8.825832,63.796131 8.746001,63.718979 8.684457,63.659504 8.594964,63.573159 8.525965,63.506596 8.520152,63.500991 8.515674,63.496667 8.44587,63.429323 8.366561,63.350823 8.305132,63.290016 8.218119,63.204023 8.150724,63.13742 8.145082,63.131844 8.140709,63.127519 8.072916,63.060512 7.981817,62.967527 7.910943,62.895191 7.813177,62.795564 7.737111,62.71806 7.730766,62.711595 7.725833,62.706555 7.649681,62.628963 7.557931,62.53176 7.486224,62.455787 7.389824,62.353852 7.314479,62.274179 7.30823,62.267568 7.303345,62.262403 7.228334,62.183091 7.135228,62.080367 7.062182,61.999764 6.966111,61.894023 6.890739,61.811072 6.884514,61.804223 6.87963,61.798843 6.804939,61.716648 6.709804,61.607144 6.634939,61.520963 6.538132,61.409891 6.461953,61.322488 6.455685,61.315295 6.450752,61.309639 6.375556,61.223367 6.277754,61.105892 6.200638,61.013255 6.101997,60.895264 6.024212,60.802223 6.017832,60.794587 6.012801,60.788571 5.936256,60.697008 5.837394,60.571987 5.759374,60.47332 5.659802,60.348143 5.581223,60.249351 5.574794,60.241267 5.569718,60.234888 5.49259,60.137923 5.396154,60.007864 5.32012,59.905319 5.222111,59.77426 5.14483,59.670923 5.138518,59.662479 5.13354,59.655824 5.057815,59.554564 4.965041,59.420988 4.892152,59.316047 4.795913,59.179031 4.720307,59.071387 4.714123,59.062584 4.709267,59.055672 4.635079,58.950051 4.536486,58.797507 4.459515,58.678416 4.353709,58.517015 4.271108,58.391008 4.264336,58.380676 4.259046,58.372608 4.177732,58.24856 4.086618,58.095703 4.016225,57.9776 3.913602,57.808431 3.834313,57.677727 3.827754,57.666912 3.822685,57.658559 3.743893,57.528668 3.661485,57.377623 3.598728,57.262596 3.500063,57.085619 3.424922,56.95084 3.418612,56.93952 3.413805,56.930899 3.33795,56.794828 3.265232,56.647648 3.210892,56.537663 3.117183,56.352943 3.047158,56.214911 3.041142,56.203056 3.036648,56.194196 2.96426,56.051507 2.901956,55.910092 2.856532,55.806984 2.769014,55.614731 2.705203,55.47456 2.699543,55.462128 2.695417,55.453059 2.627189,55.303188 2.57555,55.170051 2.539069,55.075999 2.459095,54.87792 2.402597,54.737995 2.397355,54.725016 2.393651,54.71584 2.33033,54.559019 2.308323,54.496968 2.29338,54.45484 2.256376,54.355044 2.231253,54.287295 2.228755,54.280559 2.227062,54.275992 2.196847,54.194503 2.177137,54.135672 2.164054,54.096631 2.12908,53.997028 2.105868,53.930923 2.10348,53.924119 2.101894,53.919604 2.072941,53.837155 2.055368,53.781715 2.04399,53.745816 2.011067,53.646923 1.989743,53.582867 1.987463,53.576019 1.985988,53.571592 1.958331,53.488515 1.942735,53.436583 1.932893,53.403811 1.90205,53.306192 1.882584,53.244592 1.880417,53.237736 1.879051,53.233403 1.852725,53.15008 1.837618,53.096923 1.828342,53.064283 1.796754,52.958779 1.777354,52.893984 1.775102,52.886463 1.773721,52.881848 1.746319,52.79034 1.733231,52.741599 1.72544,52.71258 1.69643,52.610195 1.679159,52.549232 1.677055,52.541803 1.675801,52.537384 1.650162,52.446887 1.628098,52.357451 1.615366,52.305835 1.562922,52.104447 1.532655,51.988216 1.528805,51.973427 1.526582,51.964895 1.479579,51.784407 1.46006,51.695408 1.449471,51.647123 1.399463,51.430343 1.372332,51.312735 1.368539,51.296283 1.36648,51.287363 1.320028,51.085983 1.302733,50.996979 1.293946,50.951744 1.24669,50.719375 1.222673,50.601276 1.218963,50.583051 1.217077,50.573787 1.171578,50.350072 1.155337,50.25464 1.147602,50.209191 1.100824,49.944864 1.078544,49.818967 1.074761,49.797591 1.072957,49.787407 1.026396,49.524299 1.012271,49.428259 1.005948,49.385263 0.963768,49.10676 0.944879,48.982063 0.941371,48.958899 0.939802,48.948536 0.896525,48.662787 0.884134,48.565452 0.878819,48.523724 0.841305,48.234067 0.825226,48.109887 0.822047,48.085335 0.820681,48.074807 0.781401,47.771472 0.770385,47.672052 0.765738,47.630147 0.7327,47.332936 0.718777,47.207671 0.715954,47.182275 0.714761,47.171567 0.679864,46.857608 0.66927,46.747923 0.664755,46.701175 0.63405,46.378868 0.620965,46.2415 0.618349,46.214031 0.617235,46.20232 0.584891,45.862799 0.57525,45.748735 0.570978,45.698168 0.544629,45.375939 0.532946,45.233095 0.530731,45.206004 0.529751,45.193988 0.50241,44.859651 0.493483,44.740747 0.489285,44.684816 0.466693,44.367839 0.456104,44.219281 0.453335,44.180427 0.430482,43.85974 0.422143,43.736207 0.417949,43.674044 0.398678,43.367291 0.38898,43.212923 0.387438,43.188431 0.386664,43.176108 0.367767,42.875328 0.363504,42.807299 0.361211,42.770699 0.352119,42.612484 0.347222,42.527371 0.346521,42.515168 0.346143,42.508604 0.337555,42.359183 0.333434,42.290323 0.331138,42.252008 0.322793,42.098608 0.31815,42.013255 0.317515,42.001619 0.317163,41.995148 0.309421,41.852864 0.305434,41.783448 0.303145,41.743583 0.29547,41.595511 0.291062,41.510468 0.290486,41.499411 0.290154,41.493063 0.283163,41.358096 0.279291,41.288091 0.277,41.246688 0.269907,41.103667 0.265711,41.019087 0.265193,41.008571 0.264885,41.002351 0.258529,40.874131 0.248659,40.684347 0.246617,40.645076 0.233963,40.370823 0.226274,40.204159 0.225353,40.184163 0.224791,40.172015 0.21356,39.928556 0.206492,39.779488 0.201984,39.684387 0.189118,39.373608 0.184152,39.253695 0.183376,39.235 0.182884,39.223072 0.173477,38.995948 0.168638,38.884779 0.16542,38.810803 0.158613,38.629219 0.154085,38.508379 0.153613,38.495791 0.153298,38.487408 0.147577,38.334812 0.142828,38.217304 0.139579,38.136999 0.133359,37.956556 0.129111,37.83324 0.128687,37.820888 0.128395,37.812443 0.123245,37.662968 0.114349,37.410615 0.10812,37.233911 0.097616,36.878748 0.090262,36.630055 0.089546,36.605755 0.089042,36.588739 0.080357,36.295088 0.074185,36.071951 0.069682,35.909103 0.063341,35.626131 0.058712,35.419612 0.058285,35.400656 0.057978,35.386824 0.052855,35.158359 0.048268,34.922955 0.044827,34.746511 0.040748,34.471023 0.037694,34.264536 0.037421,34.246271 0.037216,34.232579 0.033965,34.012788 0.032434,33.891136 0.031261,33.798068 0.030128,33.662844 0.029258,33.559399 0.029184,33.550557 0.029131,33.543792 0.028238,33.437529 0.027301,33.313943 0.02658,33.218643 0.026076,33.08497 0.025687,32.981898 0.02565,32.973177 0.025626,32.966455 0.025229,32.861702 0.024968,32.736698 0.024767,32.639688 0.024933,32.507425 0.02506,32.404783 0.025069,32.396174 0.025079,32.389493 0.025209,32.286092 0.025697,32.160019 0.026074,32.061699 0.026959,31.93046 0.027653,31.828111 0.027708,31.819584 0.027754,31.812931 0.028443,31.710559 0.031929,31.45693 0.034657,31.258451 0.038809,30.997218 0.042062,30.792793 0.042329,30.77585 0.042538,30.762588 0.045773,30.559206 0.052987,30.305921 0.058642,30.107237 0.066411,29.844986 0.072509,29.639266 0.073007,29.622381 0.073397,29.609131 0.079399,29.40652 0.09074,29.155628 0.099603,28.959589 0.111751,28.691206 0.119089,28.529135 0.122022,28.464347 0.122629,28.450955 0.131942,28.245204 0.1395,28.118547 0.145334,28.020706 0.15363,27.879692 0.16004,27.770758 0.160569,27.761722 0.160979,27.75474 0.167365,27.646203 0.176256,27.519712 0.18306,27.422917 0.193147,27.276376 0.197667,27.210713 0.201511,27.154854 0.202007,27.147668 0.209775,27.034867 0.221143,26.896586 0.229734,26.792074 0.243268,26.623487 0.253494,26.496072 0.254358,26.485274 0.255015,26.477114 0.265436,26.347269 0.27836,26.212286 0.287961,26.112047 0.304301,25.93683 0.316435,25.806712 0.317483,25.795448 0.318263,25.787085 0.330909,25.651474 0.345292,25.521276 0.355736,25.426736 0.37526,25.245114 0.389437,25.113234 0.3907,25.10147 0.391614,25.092932 0.406862,24.951101 0.422564,24.827053 0.433648,24.739502 0.45676,24.551832 0.473074,24.419377 0.47459,24.407078 0.475662,24.398395 0.493958,24.249796 0.5108,24.133116 0.52227,24.053674 0.54941,23.860475 0.567888,23.728933 0.569698,23.716037 0.570927,23.707254 0.592854,23.551174 0.610615,23.442937 0.622162,23.372556 0.653796,23.174594 0.67437,23.045873 0.676537,23.032321 0.677942,23.023508 0.704217,22.859083 0.722582,22.759992 0.733835,22.69928 0.770361,22.497345 0.792739,22.373623 0.795324,22.359328 0.796912,22.350567 0.82839,22.176549 0.847023,22.0869 0.857588,22.036079 0.899314,21.830783 0.922966,21.714404 0.92605,21.69923 0.927797,21.690632 0.965476,21.505255 0.985208,21.420437 0.995279,21.377142 1.045601,21.156341 1.071287,21.043632 1.075209,21.026423 1.077214,21.017639 1.125353,20.806415 1.144594,20.732464 1.152963,20.700292 1.209799,20.477704 1.234519,20.380889 1.239276,20.362257 1.241346,20.354156 1.300089,20.124094 1.318422,20.060899 1.3246,20.039596 1.388207,19.816588 1.40965,19.741404 1.41547,19.721007 1.41743,19.714135 1.489833,19.460279 1.506852,19.407595 1.510365,19.396716 1.580902,19.174946 1.595465,19.129159 1.602667,19.106509 1.604156,19.101831 1.694761,18.816954 1.710073,18.774383 1.710453,18.773326 1.787904,18.554837 1.789826,18.549414 1.798909,18.523782 1.799134,18.523146 1.915063,18.196105 1.925022,18.171134 1.988343,18.010167 1.99721,17.987629 2.149663,17.600078 2.153173,17.5921 2.182414,17.5247 2.187586,17.512778 2.272912,17.316117 2.357858,17.120478 2.399347,17.024926 2.403504,17.016165 2.573443,16.662591 2.671251,16.459096 2.686454,16.430138 2.844225,16.133957 2.998521,15.844297 3.028753,15.792165 3.199686,15.502285 3.367828,15.217136 3.371882,15.210812 3.375868,15.204591 3.37886,15.199927 3.381804,15.195335 3.417095,15.14029 3.600286,14.86015 3.7792,14.586553 3.791955,14.568462 3.804414,14.550792 3.807834,14.545943 3.811175,14.541208 3.851547,14.483944 4.044775,14.216136 4.231942,13.956725 4.255271,13.926527 4.277866,13.897276 4.281751,13.892244 4.285514,13.887373 4.331436,13.827919 4.532516,13.574449 4.725462,13.331236 4.761328,13.288842 4.795742,13.248167 4.800155,13.242949 4.804393,13.237937 4.856598,13.176225 5.064209,12.938219 5.261267,12.712308 5.311419,12.657886 5.359026,12.606228 5.364018,12.600812 5.368754,12.59567 5.427827,12.53157 5.639699,12.309345 5.838348,12.100989 5.903352,12.035375 5.964302,11.973854 5.969846,11.968261 5.975043,11.96302 6.040683,11.896764 6.25175,11.691389 6.446931,11.501469 6.531534,11.42139 6.609772,11.347335 6.616205,11.341244 6.622155,11.335614 6.698438,11.263406 6.916555,11.064775 7.115005,10.884056 7.214734,10.794991 7.305464,10.713959 7.312408,10.707759 7.318727,10.702118 7.401182,10.628475 7.609413,10.449829 7.795493,10.290186 7.908073,10.194765 8.008682,10.109494 8.016053,10.103245 8.02264,10.097662 8.110278,10.02338 8.305553,9.864555 8.476713,9.725345 8.598986,9.626612 8.706155,9.540073 8.713838,9.533872 8.720571,9.52844 8.812043,9.454577 8.992261,9.315002 9.14704,9.195133 9.275075,9.096444 9.385043,9.011684 9.392886,9.005641 9.399624,9.000445 9.493155,8.928352 9.657034,8.807188 9.794931,8.705234 9.859583,8.657036 9.913987,8.616476 9.917894,8.61356 9.921183,8.611112 9.96785,8.576317 10.043101,8.522509 10.105798,8.477679 10.169034,8.431228 10.221716,8.392526 10.225524,8.389728 10.228699,8.387398 10.274225,8.353957 10.343905,8.304845 10.401402,8.264321 10.525248,8.175531 10.627441,8.102265 10.634888,8.096928 10.641036,8.092519 10.7301,8.02867 10.856941,7.941304 10.959665,7.870545 11.085089,7.783901 11.18667,7.713732 11.194211,7.708524 11.200316,7.704305 11.290619,7.64192 11.4083,7.563668 11.501904,7.501431 11.572046,7.454355 11.627828,7.416912 11.632059,7.414072 11.635427,7.411811 11.686148,7.377771 11.748199,7.337618 11.797077,7.305989 11.870866,7.257373 11.928996,7.219075 11.933459,7.216135 11.936974,7.213823 11.990518,7.178547 12.053345,7.138579 12.102344,7.107402 12.180877,7.05654 12.242136,7.016868 12.246903,7.013781 12.250617,7.011374 12.307827,6.974324 12.372267,6.933949 12.422022,6.902778 12.504576,6.85051 12.568319,6.81015 12.573352,6.806963 12.57724,6.804503 12.63766,6.766246 12.70302,6.726109 12.752985,6.695426 12.928892,6.587914 13.063357,6.505726 13.074123,6.499145 13.082353,6.494118 13.211746,6.415033 13.34411,6.336248 13.443391,6.277154 13.632291,6.16689 13.773973,6.084185 13.785643,6.077374 13.794394,6.072264 13.934804,5.990303 14.069121,5.913558 14.168167,5.856968 14.37547,5.741479 14.52833,5.656322 14.541256,5.649121 14.550786,5.64381 14.706459,5.557088 14.847152,5.47997 14.949381,5.423936 15.166803,5.308533 15.324782,5.224681 15.338449,5.217425 15.348377,5.212155 15.513174,5.124683 15.655569,5.049921 15.757891,4.996197 15.983274,4.882441 16.145235,4.8007 16.159496,4.793503 16.169745,4.788327 16.341817,4.701481 16.485969,4.629102 16.588853,4.577445 16.819921,4.466879 16.98485,4.387963 16.999533,4.380938 17.010009,4.375923 17.18723,4.291122 17.333321,4.221168 17.437377,4.171339 17.671782,4.065463 17.838744,3.990049 17.853655,3.983311 17.864282,3.978508 18.044322,3.897185 18.192611,3.829722 18.298544,3.78153 18.416152,3.730791 18.500166,3.694544 18.50764,3.691323 18.512977,3.689023 18.603153,3.650119 18.678032,3.617418 18.731693,3.593987 18.848118,3.545105 18.931547,3.510072 18.93893,3.50697 18.944219,3.504752 19.033308,3.467348 19.108085,3.435493 19.161886,3.412573 19.276791,3.365576 19.359453,3.331765 19.366727,3.32879 19.371956,3.326649 19.459675,3.290772 19.534268,3.259751 19.588158,3.23734 19.701416,3.192199 19.783248,3.159581 19.790397,3.156735 19.79556,3.154679 19.881787,3.120311 19.956191,3.090103 20.010201,3.068176 20.121692,3.024861 20.202625,2.993422 20.209647,2.990694 20.214745,2.988713 20.299386,2.955832 20.373581,2.926422 20.427703,2.904967 20.537331,2.863446 20.6173,2.833156 20.624183,2.83055 20.629207,2.828647 20.712177,2.797223 20.786146,2.768594 20.840373,2.747607 20.990304,2.692496 21.100225,2.652092 21.109616,2.648641 21.116495,2.646111 21.229633,2.604521 21.332598,2.56579 21.408614,2.537195 21.554535,2.485372 21.662271,2.447115 21.671376,2.443882 21.678098,2.441495 21.787751,2.402555 21.890012,2.365352 21.966019,2.337698 22.110786,2.288063 22.21839,2.251173 22.227386,2.248089 22.234075,2.245797 22.34243,2.208643 22.445898,2.172267 22.523311,2.145051 22.669369,2.096811 22.778651,2.060716 22.787704,2.057726 22.794473,2.055492 22.90339,2.019519 23.009831,1.983437 23.089989,1.956261 23.239644,1.908772 23.352346,1.873013 23.361587,1.870078 23.36855,1.867867 23.479747,1.832581 23.591002,1.796316 23.675322,1.768832 23.825947,1.723057 23.940106,1.688359 23.949378,1.68554 23.956408,1.683403 24.067941,1.649507 24.182166,1.613825 24.269261,1.586617 24.420715,1.542661 24.536205,1.509146 24.545504,1.506445 24.552593,1.504388 24.664385,1.471942 24.78148,1.437001 24.871273,1.410207 25.023454,1.368188 25.140153,1.335965 25.149471,1.333392 25.15662,1.331419 25.268616,1.300491 25.388451,1.266458 25.480829,1.240226 25.64256,1.197839 25.767231,1.165165 25.777111,1.162575 25.784731,1.160578 25.90345,1.12946 26.032896,1.094587 26.133108,1.067591 26.295765,1.027366 26.421685,0.996229 26.431607,0.993776 26.439287,0.991878 26.558431,0.962414 26.690186,0.928958 26.792447,0.902993 26.894877,0.879351 27.082943,0.835944 27.092903,0.833643 27.100635,0.831859 27.220254,0.804248 27.353723,0.772636 27.457466,0.748063 27.621767,0.713127 27.749477,0.685972 27.75948,0.683846 27.76725,0.682194 27.887291,0.656672 28.021976,0.627288 28.126738,0.604434 28.291541,0.572692 28.419736,0.548 28.429757,0.546071 28.437552,0.544569 28.55787,0.521392 28.693376,0.494598 28.798819,0.473751 28.963768,0.445595 29.092128,0.423685 29.102147,0.421978 29.109947,0.420649 29.230284,0.400108 29.366323,0.37623 29.472242,0.357641 29.636855,0.333495 29.765021,0.314693 29.77502,0.313224 29.782798,0.312084 29.902803,0.294481 30.039205,0.273828 30.145514,0.257731 30.22754,0.247286 30.291471,0.239147 30.29645,0.238515 30.300329,0.238019 30.360069,0.230417 30.428358,0.221393 30.481627,0.214357 30.563347,0.205073 30.62709,0.19783 30.632043,0.197267 30.635912,0.196827 30.695391,0.19007 30.76376,0.181967 30.817143,0.175641 30.898464,0.167566 30.961968,0.161263 30.966893,0.160777 30.97074,0.160395 31.029889,0.154528 31.098344,0.147378 31.151869,0.141789 31.232696,0.134982 31.295901,0.129656 31.300795,0.129243 31.304625,0.128923 31.363366,0.123972 31.431917,0.117823 31.485628,0.113004 31.565857,0.107504 31.628705,0.103194 31.633562,0.102857 31.637367,0.102596 31.695622,0.098601 31.764304,0.093491 31.818225,0.089482 31.897753,0.085336 31.960185,0.08208 31.964991,0.081829 31.96877,0.081631 32.026449,0.078626 32.09529,0.074596 32.149478,0.071427 32.228192,0.068673 32.290149,0.066509 32.294904,0.066342 32.298643,0.066212 32.355671,0.064219 32.424706,0.061321 32.479209,0.059034 32.556989,0.057714 32.618404,0.056672 32.623097,0.056592 32.626806,0.056529 32.683083,0.055575 32.752354,0.053855 32.807242,0.052495 32.88397,0.052643 32.944767,0.052758 32.949389,0.052764 32.953052,0.052773 33.008498,0.05288 33.078053,0.052403 33.13339,0.052022 33.205761,0.052391 33.263345,0.052688 33.318257,0.054222 33.361942,0.055445 33.365836,0.055554 33.368935,0.055639 33.415589,0.056944 33.496444,0.055472 33.569536,0.05414 33.602751,0.054333 33.632776,0.054514 "
     style="fill:#bfbfbf"
     id="polygon52" />
</svg>
